<svg xmlns="http://www.w3.org/2000/svg" viewBox="0 0 760 760" class="hero-radar-svg hero-block__radar-svg" aria-hidden="true" focusable="false"><style>.radar-ring-border { fill: none; stroke: rgba(255,255,255,0.4); stroke-width: 1; }
.radar-ring-border--adopt { stroke-width: 1.5; }
.hero-radar-axis { stroke: #5ca1b6; stroke-width: 24; stroke-linecap: butt; }
.radar-blip__circle { stroke-width: 2; }
.radar-blip__tri { stroke-width: 2; stroke-linejoin: round; }
.radar-blip__circle--default { r: 12; }
.radar-blip--techniques .radar-blip__circle--default { fill: #456d62; stroke: #456d62; }
.radar-blip--platforms .radar-blip__circle--default { fill: #c86952; stroke: #c86952; }
.radar-blip--tools .radar-blip__circle--default { fill: #7c4861; stroke: #7c4861; }
.radar-blip--languages-and-frameworks .radar-blip__circle--default { fill: #4d7090; stroke: #4d7090; }
.radar-blip--techniques .radar-blip__tri--new { fill: none; stroke: #456d62; }
.radar-blip--platforms .radar-blip__tri--new { fill: none; stroke: #c86952; }
.radar-blip--tools .radar-blip__tri--new { fill: none; stroke: #7c4861; }
.radar-blip--languages-and-frameworks .radar-blip__tri--new { fill: none; stroke: #4d7090; }
.radar-blip--techniques .radar-blip__tri--moved { fill: rgba(69,109,98,0.55); stroke: #456d62; }
.radar-blip--platforms .radar-blip__tri--moved { fill: rgba(200,105,82,0.55); stroke: #c86952; }
.radar-blip--tools .radar-blip__tri--moved { fill: rgba(124,72,97,0.55); stroke: #7c4861; }
.radar-blip--languages-and-frameworks .radar-blip__tri--moved { fill: rgba(77,112,144,0.55); stroke: #4d7090; }</style><g class="radar-quadrant-group radar-quadrant-group--techniques"><path d="M 380 380 L 267.5 380 A 112.5 112.5 0 0 1 380 267.5 Z" fill="#5b907e" class="radar-quadrant radar-quadrant--techniques radar-sector--adopt"></path><path d="M 267.5 380 L 173.74999999999997 380 A 206.25000000000003 206.25000000000003 0 0 1 379.99999999999994 173.74999999999997 L 380 267.5 A 112.5 112.5 0 0 0 267.5 380 Z" fill="#709e8e" class="radar-quadrant radar-quadrant--techniques radar-sector--trial"></path><path d="M 173.74999999999997 380 L 98.75 380.00000000000006 A 281.25 281.25 0 0 1 379.99999999999994 98.75 L 379.99999999999994 173.74999999999997 A 206.25000000000003 206.25000000000003 0 0 0 173.74999999999997 380 Z" fill="#8db1a5" class="radar-quadrant radar-quadrant--techniques radar-sector--assess"></path><path d="M 98.75 380.00000000000006 L 5 380.00000000000006 A 375 375 0 0 1 379.99999999999994 5 L 379.99999999999994 98.75 A 281.25 281.25 0 0 0 98.75 380.00000000000006 Z" fill="#ccdcd6" class="radar-quadrant radar-quadrant--techniques radar-sector--hold"></path></g><g class="radar-quadrant-group radar-quadrant-group--platforms"><path d="M 380 380 L 380 492.5 A 112.5 112.5 0 0 1 267.5 380 Z" fill="#dc7f6a" class="radar-quadrant radar-quadrant--platforms radar-sector--adopt"></path><path d="M 380 492.5 L 380 586.25 A 206.25000000000003 206.25000000000003 0 0 1 173.74999999999997 380 L 267.5 380 A 112.5 112.5 0 0 0 380 492.5 Z" fill="#e1907a" class="radar-quadrant radar-quadrant--platforms radar-sector--trial"></path><path d="M 380 586.25 L 380 661.25 A 281.25 281.25 0 0 1 98.75 380.00000000000006 L 173.74999999999997 380 A 206.25000000000003 206.25000000000003 0 0 0 380 586.25 Z" fill="#e8a794" class="radar-quadrant radar-quadrant--platforms radar-sector--assess"></path><path d="M 380 661.25 L 380 755 A 375 375 0 0 1 5 380.00000000000006 L 98.75 380.00000000000006 A 281.25 281.25 0 0 0 380 661.25 Z" fill="#f6dace" class="radar-quadrant radar-quadrant--platforms radar-sector--hold"></path></g><g class="radar-quadrant-group radar-quadrant-group--tools"><path d="M 380 380 L 380 267.5 A 112.5 112.5 0 0 1 492.5 380 Z" fill="#9e5b7b" class="radar-quadrant radar-quadrant--tools radar-sector--adopt"></path><path d="M 380 267.5 L 379.99999999999994 173.74999999999997 A 206.25000000000003 206.25000000000003 0 0 1 586.25 379.99999999999994 L 492.5 380 A 112.5 112.5 0 0 0 380 267.5 Z" fill="#ab6f8c" class="radar-quadrant radar-quadrant--tools radar-sector--trial"></path><path d="M 379.99999999999994 173.74999999999997 L 379.99999999999994 98.75 A 281.25 281.25 0 0 1 661.25 379.99999999999994 L 586.25 379.99999999999994 A 206.25000000000003 206.25000000000003 0 0 0 379.99999999999994 173.74999999999997 Z" fill="#bd8ba3" class="radar-quadrant radar-quadrant--tools radar-sector--assess"></path><path d="M 379.99999999999994 98.75 L 379.99999999999994 5 A 375 375 0 0 1 755 379.9999999999999 L 661.25 379.99999999999994 A 281.25 281.25 0 0 0 379.99999999999994 98.75 Z" fill="#e3ccd7" class="radar-quadrant radar-quadrant--tools radar-sector--hold"></path></g><g class="radar-quadrant-group radar-quadrant-group--languages-and-frameworks"><path d="M 380 380 L 492.5 380 A 112.5 112.5 0 0 1 380 492.5 Z" fill="#638ca3" class="radar-quadrant radar-quadrant--languages-and-frameworks radar-sector--adopt"></path><path d="M 492.5 380 L 586.25 380 A 206.25000000000003 206.25000000000003 0 0 1 380 586.25 L 380 492.5 A 112.5 112.5 0 0 0 492.5 380 Z" fill="#7699ae" class="radar-quadrant radar-quadrant--languages-and-frameworks radar-sector--trial"></path><path d="M 586.25 380 L 661.25 380 A 281.25 281.25 0 0 1 380 661.25 L 380 586.25 A 206.25000000000003 206.25000000000003 0 0 0 586.25 380 Z" fill="#91abbd" class="radar-quadrant radar-quadrant--languages-and-frameworks radar-sector--assess"></path><path d="M 661.25 380 L 755 380 A 375 375 0 0 1 380 755 L 380 661.25 A 281.25 281.25 0 0 0 661.25 380 Z" fill="#cdd8e2" class="radar-quadrant radar-quadrant--languages-and-frameworks radar-sector--hold"></path></g><circle cx="380" cy="380" r="112.5" class="radar-ring-border radar-ring-border--adopt" fill="none"></circle><circle cx="380" cy="380" r="206.25000000000003" class="radar-ring-border radar-ring-border--trial" fill="none"></circle><circle cx="380" cy="380" r="281.25" class="radar-ring-border radar-ring-border--assess" fill="none"></circle><line x1="5" y1="380" x2="755" y2="380" class="hero-radar-axis"></line><line x1="380" y1="5" x2="380" y2="755" class="hero-radar-axis"></line><g class="radar-blip radar-blip--trial radar-blip--techniques" data-marker="new" transform="translate(248.7446227690543, 347.9844873853974)" aria-hidden="true"><polygon points="0,-12 -12,10 12,10" class="radar-blip__tri radar-blip__tri--new"></polygon></g><g class="radar-blip radar-blip--adopt radar-blip--techniques" data-marker="default" transform="translate(331.90950634120173, 337.6027458362145)" aria-hidden="true"><circle r="12" class="radar-blip__circle radar-blip__circle--default"></circle></g><g class="radar-blip radar-blip--trial radar-blip--techniques" data-marker="default" transform="translate(311.6020506293501, 267.4119292713376)" aria-hidden="true"><circle r="12" class="radar-blip__circle radar-blip__circle--default"></circle></g><g class="radar-blip radar-blip--assess radar-blip--techniques" data-marker="new" transform="translate(232.15087083432448, 198.49682865289387)" aria-hidden="true"><polygon points="0,-12 -12,10 12,10" class="radar-blip__tri radar-blip__tri--new"></polygon></g><g class="radar-blip radar-blip--adopt radar-blip--techniques" data-marker="moved" transform="translate(354, 335.0265954601489)" aria-hidden="true"><polygon points="0,12 -12,-10 12,-10" class="radar-blip__tri radar-blip__tri--moved"></polygon></g><g class="radar-blip radar-blip--trial radar-blip--techniques" data-marker="default" transform="translate(237.0624346658412, 307.55883401692336)" aria-hidden="true"><circle r="12" class="radar-blip__circle radar-blip__circle--default"></circle></g><g class="radar-blip radar-blip--adopt radar-blip--techniques" data-marker="new" transform="translate(303.3950351538691, 326.7928794574089)" aria-hidden="true"><polygon points="0,-12 -12,10 12,10" class="radar-blip__tri radar-blip__tri--new"></polygon></g><g class="radar-blip radar-blip--adopt radar-blip--techniques" data-marker="new" transform="translate(319.4906153822454, 354)" aria-hidden="true"><polygon points="0,-12 -12,10 12,10" class="radar-blip__tri radar-blip__tri--new"></polygon></g><g class="radar-blip radar-blip--adopt radar-blip--techniques" data-marker="new" transform="translate(354, 296.7686190428875)" aria-hidden="true"><polygon points="0,-12 -12,10 12,10" class="radar-blip__tri radar-blip__tri--new"></polygon></g><g class="radar-blip radar-blip--adopt radar-blip--techniques" data-marker="new" transform="translate(331.07547259281085, 307.6143416154737)" aria-hidden="true"><polygon points="0,-12 -12,10 12,10" class="radar-blip__tri radar-blip__tri--new"></polygon></g><g class="radar-blip radar-blip--assess radar-blip--techniques" data-marker="default" transform="translate(160.7525994021803, 243.03216327061372)" aria-hidden="true"><circle r="12" class="radar-blip__circle radar-blip__circle--default"></circle></g><g class="radar-blip radar-blip--trial radar-blip--techniques" data-marker="new" transform="translate(288.40546307392026, 286.43608038993614)" aria-hidden="true"><polygon points="0,-12 -12,10 12,10" class="radar-blip__tri radar-blip__tri--new"></polygon></g><g class="radar-blip radar-blip--trial radar-blip--techniques" data-marker="default" transform="translate(240.64939576454003, 247.22931645210375)" aria-hidden="true"><circle r="12" class="radar-blip__circle radar-blip__circle--default"></circle></g><g class="radar-blip radar-blip--trial radar-blip--tools" data-marker="default" transform="translate(480.31774780797525, 252.988949315013)" aria-hidden="true"><circle r="12" class="radar-blip__circle radar-blip__circle--default"></circle></g><g class="radar-blip radar-blip--trial radar-blip--tools" data-marker="new" transform="translate(413.2489946199974, 235.74999859543297)" aria-hidden="true"><polygon points="0,-12 -12,10 12,10" class="radar-blip__tri radar-blip__tri--new"></polygon></g><g class="radar-blip radar-blip--adopt radar-blip--tools" data-marker="default" transform="translate(406, 337.6528710170299)" aria-hidden="true"><circle r="12" class="radar-blip__circle radar-blip__circle--default"></circle></g><g class="radar-blip radar-blip--assess radar-blip--tools" data-marker="default" transform="translate(472.9893116250586, 140.7685502158843)" aria-hidden="true"><circle r="12" class="radar-blip__circle radar-blip__circle--default"></circle></g><g class="radar-blip radar-blip--trial radar-blip--tools" data-marker="default" transform="translate(456.6600427535739, 271.4365234525237)" aria-hidden="true"><circle r="12" class="radar-blip__circle radar-blip__circle--default"></circle></g><g class="radar-blip radar-blip--trial radar-blip--tools" data-marker="new" transform="translate(497.5419307364243, 328.92984774423746)" aria-hidden="true"><polygon points="0,-12 -12,10 12,10" class="radar-blip__tri radar-blip__tri--new"></polygon></g><g class="radar-blip radar-blip--hold radar-blip--tools" data-marker="new" transform="translate(696.0415504117606, 297.8335197821984)" aria-hidden="true"><polygon points="0,-12 -12,10 12,10" class="radar-blip__tri radar-blip__tri--new"></polygon></g><g class="radar-blip radar-blip--hold radar-blip--tools" data-marker="default" transform="translate(458.5573829078809, 60.5704703565753)" aria-hidden="true"><circle r="12" class="radar-blip__circle radar-blip__circle--default"></circle></g><g class="radar-blip radar-blip--adopt radar-blip--tools" data-marker="default" transform="translate(426.7555962939369, 316.0868285679221)" aria-hidden="true"><circle r="12" class="radar-blip__circle radar-blip__circle--default"></circle></g><g class="radar-blip radar-blip--adopt radar-blip--tools" data-marker="default" transform="translate(450.59663802684037, 334.29684584111425)" aria-hidden="true"><circle r="12" class="radar-blip__circle radar-blip__circle--default"></circle></g><g class="radar-blip radar-blip--trial radar-blip--platforms" data-marker="default" transform="translate(286.39848133115123, 464.9014668296356)" aria-hidden="true"><circle r="12" class="radar-blip__circle radar-blip__circle--default"></circle></g><g class="radar-blip radar-blip--adopt radar-blip--platforms" data-marker="default" transform="translate(336.0279490757024, 434.94559707624654)" aria-hidden="true"><circle r="12" class="radar-blip__circle radar-blip__circle--default"></circle></g><g class="radar-blip radar-blip--adopt radar-blip--platforms" data-marker="default" transform="translate(344.40418499849966, 406.13867652292043)" aria-hidden="true"><circle r="12" class="radar-blip__circle radar-blip__circle--default"></circle></g><g class="radar-blip radar-blip--trial radar-blip--platforms" data-marker="default" transform="translate(215.94298300780022, 442.9076284741727)" aria-hidden="true"><circle r="12" class="radar-blip__circle radar-blip__circle--default"></circle></g><g class="radar-blip radar-blip--hold radar-blip--platforms" data-marker="default" transform="translate(98.56601746973519, 597.7901907615054)" aria-hidden="true"><circle r="12" class="radar-blip__circle radar-blip__circle--default"></circle></g><g class="radar-blip radar-blip--adopt radar-blip--languages-and-frameworks" data-marker="default" transform="translate(438.8501808369232, 436.93013388786636)" aria-hidden="true"><circle r="12" class="radar-blip__circle radar-blip__circle--default"></circle></g><g class="radar-blip radar-blip--adopt radar-blip--languages-and-frameworks" data-marker="default" transform="translate(414.16012762582665, 454.3430871223314)" aria-hidden="true"><circle r="12" class="radar-blip__circle radar-blip__circle--default"></circle></g><g class="radar-blip radar-blip--adopt radar-blip--languages-and-frameworks" data-marker="moved" transform="translate(406.67894316130105, 425.2908603744943)" aria-hidden="true"><polygon points="0,12 -12,-10 12,-10" class="radar-blip__tri radar-blip__tri--moved"></polygon></g><g class="radar-blip radar-blip--hold radar-blip--languages-and-frameworks" data-marker="moved" transform="translate(527.2589803714043, 672.7858940428903)" aria-hidden="true"><polygon points="0,12 -12,-10 12,-10" class="radar-blip__tri radar-blip__tri--moved"></polygon></g><g class="radar-blip radar-blip--assess radar-blip--languages-and-frameworks" data-marker="default" transform="translate(593.2251090436686, 528.2966553495894)" aria-hidden="true"><circle r="12" class="radar-blip__circle radar-blip__circle--default"></circle></g><g class="radar-blip radar-blip--adopt radar-blip--languages-and-frameworks" data-marker="default" transform="translate(425.3043290039852, 406)" aria-hidden="true"><circle r="12" class="radar-blip__circle radar-blip__circle--default"></circle></g><g class="radar-blip radar-blip--hold radar-blip--languages-and-frameworks" data-marker="default" transform="translate(661.0096730799985, 568.6160873898189)" aria-hidden="true"><circle r="12" class="radar-blip__circle radar-blip__circle--default"></circle></g><g class="radar-blip radar-blip--hold radar-blip--languages-and-frameworks" data-marker="moved" transform="translate(570.9561413892287, 629.8858477101198)" aria-hidden="true"><polygon points="0,12 -12,-10 12,-10" class="radar-blip__tri radar-blip__tri--moved"></polygon></g><g class="radar-blip radar-blip--adopt radar-blip--languages-and-frameworks" data-marker="moved" transform="translate(459.41374704683903, 415.0866052184777)" aria-hidden="true"><polygon points="0,12 -12,-10 12,-10" class="radar-blip__tri radar-blip__tri--moved"></polygon></g></svg>