<?xml version="1.0" encoding="UTF-8"?>
<svg xmlns="http://www.w3.org/2000/svg" xmlns:xlink="http://www.w3.org/1999/xlink" width="528px" height="156px" viewBox="0 0 528 156" version="1.1">
  <title>logo-sofius-white</title>
  <g id="Page-3" stroke="none" stroke-width="1" fill="none" fill-rule="evenodd">
    <g id="Sofius_Brandbook-v2" transform="translate(-1317, -720)" fill="#FFFFFF">
      <g id="logo-sofius-white" transform="translate(1317.9252, 720.456)">
        <path d="M150.7852,131.3887 C156.4832,131.3887 161.5002,130.0277 165.8422,127.3077 C170.1802,124.5877 173.6132,120.7997 176.1392,115.9417 C178.6652,111.0847 179.9282,105.6137 179.9282,99.5247 C179.9282,93.3067 178.6652,87.8377 176.1392,83.1077 C173.6132,78.3807 170.1802,74.6257 165.8422,71.8397 C161.5002,69.0547 156.4832,67.6627 150.7852,67.6627 C144.9562,67.6627 139.8392,69.0547 135.4362,71.8397 C131.0322,74.6257 127.5672,78.3807 125.0422,83.1077 C122.5172,87.8377 121.2552,93.3067 121.2552,99.5247 C121.2552,105.6137 122.5172,111.0847 125.0422,115.9417 C127.5672,120.7997 131.0322,124.5877 135.4362,127.3077 C139.8392,130.0277 144.9562,131.3887 150.7852,131.3887 M150.7852,154.7007 C140.4212,154.7007 130.9992,152.3047 122.5172,147.5117 C114.0322,142.7217 107.2962,136.1817 102.3112,127.8907 C97.3242,119.6037 94.8312,110.1457 94.8312,99.5247 C94.8312,88.9067 97.3242,79.4487 102.3112,71.1607 C107.2962,62.8737 113.9992,56.3297 122.4202,51.5367 C130.8382,46.7467 140.2942,44.3467 150.7852,44.3467 C161.1462,44.3467 170.5362,46.7467 178.9572,51.5367 C187.3752,56.3297 194.0772,62.8367 199.0642,71.0627 C204.0482,79.2897 206.5442,88.7747 206.5442,99.5247 C206.5442,110.1457 204.0192,119.6037 198.9672,127.8907 C193.9162,136.1817 187.1802,142.7217 178.7632,147.5117 C170.3422,152.3047 161.0152,154.7007 150.7852,154.7007" id="Fill-51"></path>
        <path d="M379.3438,154.67 C370.1458,154.67 362.0188,152.823 354.9618,149.135 C347.8998,145.442 342.4298,140.294 338.5438,133.688 C334.6588,127.081 332.7158,119.44 332.7158,110.764 L332.7158,46.649 L358.1668,46.649 L358.1668,109.985 C358.1668,114.261 359.0718,118.019 360.8868,121.253 C362.6988,124.493 365.2248,126.985 368.4638,128.733 C371.6998,130.483 375.3918,131.357 379.5378,131.357 C383.8128,131.357 387.5338,130.483 390.7088,128.733 C393.8818,126.985 396.3738,124.493 398.1898,121.253 C400.0018,118.019 400.9088,114.261 400.9088,109.985 L400.9088,46.649 L426.3608,46.649 L426.3608,110.764 C426.3608,119.44 424.3848,127.081 420.4348,133.688 C416.4818,140.294 411.0118,145.442 404.0178,149.135 C397.0238,152.823 388.7968,154.67 379.3438,154.67" id="Fill-53"></path>
        <path d="M15.024,146.6387 C23.38,152.0147 33.19,154.7017 44.46,154.7017 C52.487,154.7017 59.482,153.3397 65.441,150.6197 C71.397,147.9007 76.061,144.1137 79.43,139.2567 C82.797,134.3987 84.481,128.7977 84.481,122.4517 C84.481,114.9387 82.117,108.5927 77.389,103.4107 C72.661,98.2327 65.957,94.3457 57.282,91.7537 L40.379,86.7007 C37.918,85.9267 35.747,85.0857 33.871,84.1757 C31.993,83.2727 30.536,82.1057 29.499,80.6787 C28.462,79.2537 27.946,77.5697 27.946,75.6277 C27.946,72.5197 29.173,69.9937 31.636,68.0527 C34.095,66.1077 37.464,65.1387 41.738,65.1387 C47.049,65.1387 51.842,66.5627 56.115,69.4107 C58.771,71.1817 60.949,73.3277 62.654,75.8477 L78.815,61.0577 C75.966,57.3217 72.495,54.1337 68.356,51.5367 C60.712,46.7467 51.904,44.3467 41.932,44.3467 C34.29,44.3467 27.523,45.7087 21.63,48.4287 C15.735,51.1477 11.139,54.9357 7.837,59.7947 C4.533,64.6507 2.881,70.3177 2.881,76.7947 C2.881,84.0507 5.179,90.3297 9.78,95.6377 C14.375,100.9517 21.145,104.9007 30.083,107.4927 L47.374,112.3477 C49.573,112.9967 51.615,113.8047 53.493,114.7777 C55.37,115.7457 56.859,116.9127 57.961,118.2717 C59.06,119.6327 59.613,121.3507 59.613,123.4207 C59.613,126.7897 58.253,129.5127 55.532,131.5827 C52.812,133.6567 49.122,134.6917 44.46,134.6917 C38.499,134.6917 33.093,133.0067 28.235,129.6377 C23.449,126.3217 19.706,121.7397 16.995,115.9027 L0,129.9647 C3.326,136.7487 8.315,142.3217 15.024,146.6387" id="Fill-55"></path>
        <path d="M456.7804,146.7686 C465.1344,152.1456 474.9454,154.8316 486.2144,154.8316 C494.2434,154.8316 501.2374,153.4706 507.1974,150.7496 C513.1514,148.0316 517.8154,144.2436 521.1854,139.3876 C524.5514,134.5286 526.2354,128.9276 526.2354,122.5816 C526.2354,115.0696 523.8714,108.7236 519.1454,103.5406 C514.4154,98.3626 507.7134,94.4756 499.0364,91.8846 L482.1334,86.8306 C479.6724,86.0566 477.5014,85.2156 475.6254,84.3066 C473.7474,83.4036 472.2904,82.2366 471.2554,80.8086 C470.2154,79.3846 469.7004,77.7006 469.7004,75.7576 C469.7004,72.6496 470.9294,70.1236 473.3904,68.1826 C475.8494,66.2386 479.2184,65.2686 483.4924,65.2686 C488.8034,65.2686 493.5964,66.6926 497.8714,69.5406 C500.5254,71.3126 502.7034,73.4586 504.4094,75.9786 L520.5694,61.1876 C517.7224,57.4516 514.2514,54.2636 510.1104,51.6666 C502.4664,46.8776 493.6584,44.4776 483.6864,44.4776 C476.0444,44.4776 469.2774,45.8386 463.3864,48.5586 C457.4894,51.2786 452.8934,55.0656 449.5914,59.9246 C446.2874,64.7816 444.6354,70.4476 444.6354,76.9246 C444.6354,84.1806 446.9354,90.4606 451.5344,95.7686 C456.1314,101.0816 462.8994,105.0316 471.8374,107.6226 L489.1284,112.4786 C491.3294,113.1266 493.3694,113.9356 495.2474,114.9076 C497.1244,115.8766 498.6134,117.0436 499.7174,118.4016 C500.8144,119.7636 501.3684,121.4806 501.3684,123.5516 C501.3684,126.9196 500.0084,129.6436 497.2884,131.7126 C494.5684,133.7876 490.8784,134.8226 486.2144,134.8226 C480.2534,134.8226 474.8474,133.1376 469.9904,129.7686 C465.2054,126.4516 461.4604,121.8696 458.7494,116.0326 L441.7544,130.0946 C445.0804,136.8796 450.0694,142.4526 456.7804,146.7686" id="Fill-57"></path>
        <path d="M310.0158,46.649 L310.0158,152.371 L284.3698,152.371 L284.3698,46.649 L310.0158,46.649 Z M258.7238,91.02 L258.7238,152.371 L233.0778,152.371 L233.0778,91.02 L258.7238,91.02 Z M284.3698,0 L284.3698,25.646 L258.7508,25.646 L258.7368,69.992 L212.0488,69.992 L212.0488,44.346 L233.1018,44.346 L233.1088,25.636 L233.112242,25.2127785 C233.339124,11.2731102 244.75319,0 258.7508,0 L284.3698,0 Z" id="Combined-Shape"></path>
      </g>
    </g>
  </g>
</svg>
